<svg width="92" height="24" fill="none" xmlns="http://www.w3.org/2000/svg"><path d="M17 2.003H7a5 5 0 0 0-5 5v10a5 5 0 0 0 5 5h10a5 5 0 0 0 5-5v-10a5 5 0 0 0-5-5Z" stroke="#fff" stroke-width="2" stroke-linecap="round" stroke-linejoin="round"/><path d="M16 11.371a4 4 0 1 1-7.914 1.174A4 4 0 0 1 16 11.37ZM17.5 6.5h.01M86 1.998h-3a5 5 0 0 0-5 5v3h-3v4h3v8h4v-8h3l1-4h-4v-3a1 1 0 0 1 1-1h3v-4ZM57 3a10.9 10.9 0 0 1-3.14 1.53 4.48 4.48 0 0 0-7.86 3v1A10.66 10.66 0 0 1 37 4s-4 9 5 13a11.64 11.64 0 0 1-7 2c9 5 20 0 20-11.5 0-.28-.03-.56-.08-.83A7.72 7.72 0 0 0 57 3Z" stroke="#fff" stroke-width="2" stroke-linecap="round" stroke-linejoin="round"/></svg>