<svg width="112" height="20" fill="none" xmlns="http://www.w3.org/2000/svg"><path d="m10 0 2.774 6.181 6.737.729-5.022 4.549 1.389 6.631L10 14.72l-5.878 3.37 1.389-6.631-5.022-4.55 6.737-.728L10 0ZM33 0l2.774 6.181 6.737.729-5.022 4.549 1.389 6.631L33 14.72l-5.878 3.37 1.389-6.631-5.022-4.55 6.737-.728L33 0ZM79 0l2.774 6.181 6.737.729-5.022 4.549 1.389 6.631L79 14.72l-5.878 3.37 1.389-6.631-5.022-4.55 6.737-.728L79 0ZM102 0l2.774 6.181 6.737.729-5.022 4.549 1.389 6.631L102 14.72l-5.878 3.37 1.389-6.631-5.022-4.55 6.737-.728L102 0ZM56 0l2.774 6.181 6.737.729-5.022 4.549 1.389 6.631L56 14.72l-5.878 3.37 1.389-6.631-5.022-4.55 6.737-.728L56 0Z" fill="#FCFF51"/></svg>